# xmcd
#
# Track frame offsets:
#	150
#	12117
#	24145
#	34286
#	44018
#	56354
#	69111
#	81493
#	92656
#	105780
#	117772
#	128962
#	139515
#	150539
#	161167
#	173457
#	184192
#	196887
#	206586
#	218371
#	229343
#	239787
#	246837
#	261378
#	273700
#
# Disc length: 3792 seconds
#
# Revision: 0
# Processed by: cddbd v1.5.2PL0 Copyright (c) Steve Scherf et al.
# Submitted via: EasyCDDAExtractor 15.3.0.1
#
DISCID=550ece19
DTITLE=Henson Herb - Cousin Herb Henson And His Trading Post Gang
DYEAR=1900
DGENRE=Country
TTITLE0=In Remembrance Of You
TTITLE1=Laugh Laugh Laugh
TTITLE2=Toto The Eskimo
TTITLE3=I've Never Heard
TTITLE4=Tattle Tale Moon
TTITLE5=When You Give A Rose To A Red Head
TTITLE6=Birds And The Bees
TTITLE7=Hurry Back
TTITLE8=Hootchy Kootchy Henry From Hawaii
TTITLE9=Out Of Line
TTITLE10=How Come Y'all Come
TTITLE11=Funny Book
TTITLE12=Come A Little Bit Closer
TTITLE13=Space Command
TTITLE14=Ain't You Had No Bringing Up At All
TTITLE15=I'm Gonna Move Over Yonder
TTITLE16=Love Life At Fourteen
TTITLE17=Y'all Come
TTITLE18=Man Holds Lightning In His Hands
TTITLE19=Old Jalopy
TTITLE20=Up My Path And In My Door
TTITLE21=Up Yaander
TTITLE22=Leave All Your Heartaches To Jesus
TTITLE23=I Walked And Talked With Jesus
TTITLE24=Bouncing Ball
EXTD=
EXTT0=
EXTT1=
EXTT2=
EXTT3=
EXTT4=
EXTT5=
EXTT6=
EXTT7=
EXTT8=
EXTT9=
EXTT10=
EXTT11=
EXTT12=
EXTT13=
EXTT14=
EXTT15=
EXTT16=
EXTT17=
EXTT18=
EXTT19=
EXTT20=
EXTT21=
EXTT22=
EXTT23=
EXTT24=
PLAYORDER=
